<?xml version="1.0" encoding="utf-8"?>
<!-- Generator: Adobe Illustrator 16.0.0, SVG Export Plug-In . SVG Version: 6.00 Build 0)  -->
<svg version="1.2" baseProfile="tiny" id="Layer_1" xmlns="http://www.w3.org/2000/svg" xmlns:xlink="http://www.w3.org/1999/xlink"
	 x="0px" y="0px" width="68.02px" height="14.91px" viewBox="0 0 68.02 14.91" xml:space="preserve">
<rect x="-0.303" y="-0.003" display="none" width="68.322" height="14.913"/>
<path id="Path_24" display="none" fill="#FFFFFF" d="M19.088,0.063c0.658,0,1.197-0.021,1.617-0.063v0.42
	c-0.401,0.181-0.751,0.458-1.018,0.809c-0.383,0.505-0.665,1.079-0.83,1.691l-3.696,11.99c-0.154-0.014-0.398-0.021-0.735-0.021
	c-0.336,0-0.58,0.008-0.734,0.021l-3.087-9.366L7.497,14.91c-0.154-0.014-0.398-0.021-0.734-0.021c-0.337,0-0.581,0.008-0.735,0.021
	l-4.7-13.146C1.21,1.383,1.001,1.037,0.718,0.756C0.525,0.567,0.273,0.448,0.004,0.42V0c0.84,0.042,1.884,0.063,3.129,0.063
	C4.309,0.063,5.17,0.042,5.716,0v0.42C5.3,0.429,4.969,0.773,4.978,1.19c0,0.017,0.001,0.033,0.003,0.049
	C5,1.562,5.063,1.879,5.17,2.184l3.062,8.884l2.121-6.258L9.281,1.555C9.192,1.234,9.022,0.94,8.788,0.704
	c-0.187-0.16-0.417-0.259-0.661-0.283v-0.42c0.784,0.042,1.784,0.063,3,0.063c1.372,0,2.38-0.021,3.024-0.063v0.42
	c-0.372-0.01-0.742,0.051-1.092,0.179c-0.228,0.109-0.361,0.349-0.336,0.6c0.017,0.338,0.088,0.671,0.21,0.987l2.877,8.778
	l1.995-6.342c0.272-0.786,0.435-1.605,0.482-2.436c0.047-0.484-0.117-0.964-0.449-1.319c-0.385-0.303-0.863-0.462-1.354-0.451v-0.42
	C17.436,0.044,18.304,0.066,19.088,0.063z M31.562,0.42c-0.35,0.006-0.696,0.063-1.029,0.168c-0.211,0.085-0.37,0.264-0.43,0.483
	c-0.093,0.378-0.132,0.767-0.116,1.155v10.417c-0.016,0.389,0.023,0.777,0.116,1.154c0.06,0.219,0.219,0.398,0.43,0.482
	c0.333,0.106,0.68,0.163,1.029,0.169v0.42c-0.756-0.042-1.813-0.063-3.171-0.063c-1.498,0-2.604,0.021-3.318,0.063v-0.42
	c0.346-0.008,0.689-0.063,1.019-0.169c0.216-0.082,0.379-0.261,0.441-0.482c0.093-0.377,0.132-0.767,0.115-1.154V2.226
	c0.017-0.39-0.022-0.779-0.115-1.158c-0.063-0.222-0.226-0.401-0.441-0.483c-0.329-0.104-0.673-0.161-1.019-0.168v-0.42
	c0.714,0.042,1.82,0.063,3.318,0.063c1.357,0,2.415-0.021,3.171-0.063V0.42z M43.362,0.42c-0.373,0.007-0.742,0.063-1.1,0.168
	c-0.226,0.078-0.4,0.257-0.474,0.483c-0.101,0.376-0.144,0.766-0.126,1.155v10.668c-0.016,0.328,0.018,0.658,0.101,0.977
	c0.054,0.186,0.188,0.336,0.367,0.41c0.276,0.082,0.564,0.116,0.852,0.1h1.033c0.979-0.014,1.893-0.488,2.467-1.281
	c0.749-0.99,1.217-2.165,1.354-3.399h0.483c-0.042,0.476-0.063,1.092-0.063,1.848c-0.011,1.108,0.039,2.217,0.148,3.32
	c-0.953-0.042-2.556-0.063-4.808-0.063c-3.054,0-5.336,0.021-6.849,0.063v-0.42c0.346-0.008,0.689-0.063,1.02-0.169
	c0.215-0.082,0.379-0.261,0.44-0.482c0.093-0.377,0.132-0.767,0.115-1.154V2.226c0.017-0.39-0.022-0.779-0.115-1.158
	c-0.062-0.222-0.226-0.401-0.44-0.483c-0.33-0.104-0.674-0.161-1.02-0.168v-0.42c0.714,0.042,1.82,0.063,3.318,0.063
	c1.428,0,2.528-0.021,3.3-0.063L43.362,0.42z M59.847,0c2.729,0,4.773,0.619,6.132,1.858c1.433,1.422,2.178,3.396,2.04,5.41
	c0.031,1.399-0.314,2.781-1,4c-0.675,1.15-1.676,2.074-2.875,2.655c-1.4,0.662-2.937,0.985-4.484,0.945l-1.3-0.021
	c-0.813-0.029-1.401-0.043-1.763-0.043c-1.442,0-2.521,0.021-3.234,0.063v-0.42c0.346-0.008,0.688-0.064,1.018-0.169
	c0.216-0.082,0.379-0.261,0.441-0.482c0.093-0.377,0.131-0.767,0.115-1.154V2.226c0.016-0.389-0.022-0.777-0.115-1.155
	c-0.063-0.222-0.226-0.401-0.441-0.483c-0.329-0.104-0.672-0.161-1.018-0.168V0c0.588,0.042,1.435,0.063,2.541,0.063h0.651
	l0.84-0.021C58.542,0.014,59.36,0,59.85,0H59.847z M59.826,0.378c-0.332-0.017-0.664,0.033-0.976,0.147
	c-0.22,0.101-0.385,0.293-0.451,0.525c-0.099,0.37-0.142,0.752-0.126,1.134v10.5c-0.016,0.383,0.026,0.765,0.124,1.135
	c0.066,0.232,0.231,0.424,0.451,0.524c0.319,0.115,0.66,0.165,1,0.147c1.44,0.127,2.833-0.557,3.611-1.775
	c0.82-1.664,1.189-3.514,1.071-5.365c0.13-1.829-0.251-3.658-1.1-5.282c-0.813-1.167-2.187-1.811-3.604-1.69H59.826z"/>
<text transform="matrix(1.3404 0 0 1 -2.450943e-004 14.9209)" display="none" fill="#FFB072" font-family="'PlayfairDisplaySC-Regular'" font-size="20.9594">YUKI</text>
<g>
	<path fill="#FFFFFF" d="M10.421,0.177c0.665,0.069,1.434,0.092,1.996,0.092c0.563,0,1.458-0.022,1.813-0.092V0.67
		c-0.54,0.138-0.918,0.54-1.503,1.595L9.032,8.863v3.109c0,1.71,0.31,1.951,1.905,2.02v0.471c-0.723-0.046-1.905-0.069-2.983-0.069
		c-1.216,0-2.352,0.023-3.006,0.069v-0.471c1.595-0.068,1.905-0.31,1.905-2.02V9.54L2.319,1.99C1.654,0.877,1.333,0.739,0.954,0.67
		V0.177C1.7,0.223,2.216,0.269,3.019,0.269c1.033,0,2.042-0.022,3.293-0.092V0.67c-0.849,0-1.664,0.035-1.664,0.711
		c0,0.252,0.126,0.62,0.413,1.102l3.557,5.909l2.915-5.117c0.356-0.631,0.528-1.136,0.528-1.515c0-0.7-0.585-1.021-1.641-1.09V0.177
		z"/>
	<path fill="#FFFFFF" d="M34.046,0.647c-1.595,0.069-1.905,0.539-1.905,2.249v5.198c0,2.088-0.252,3.592-0.953,4.75
		c-0.734,1.171-2.237,1.951-4.073,1.951c-1.411,0-2.742-0.264-3.706-1.033c-1.389-1.25-1.744-2.547-1.744-5.6V2.667
		c0-1.721-0.31-1.951-1.905-2.02V0.177c0.666,0.046,1.79,0.069,3.007,0.069c1.09,0,2.26-0.023,2.983-0.069v0.471
		c-1.595,0.069-1.894,0.298-1.894,2.02v5.898c0,2.982,0.344,5.404,3.477,5.404c3.362,0,4.269-2.398,4.269-5.611V2.896
		c0-1.71-0.539-2.18-2.134-2.249V0.177c0.562,0.046,1.595,0.069,2.398,0.069s1.664-0.023,2.18-0.069V0.647z"/>
	<path fill="#FFFFFF" d="M52.645,12.558c0.539,0.689,1.102,1.148,1.836,1.435v0.471c-0.757-0.046-1.858-0.069-2.627-0.069
		c-0.643,0-1.607,0-2.995,0.069v-0.471c1.044-0.034,1.411-0.172,1.411-0.459c0-0.149-0.115-0.355-0.299-0.597L46.84,8.588
		c-0.62-0.85-1.147-1.228-2.421-1.273v4.658c0,1.71,0.31,1.951,1.904,2.02v0.471c-0.723-0.046-1.904-0.069-2.983-0.069
		c-1.216,0-2.353,0.023-3.007,0.069v-0.471c1.596-0.068,1.905-0.31,1.905-2.02V2.667c0-1.721-0.31-1.951-1.905-2.02V0.177
		c0.654,0.046,1.791,0.069,3.007,0.069c1.079,0,2.261-0.023,2.983-0.069v0.471c-1.595,0.069-1.904,0.298-1.904,2.02v4.257
		c1.021-0.068,1.893-0.367,3.155-1.583l2.8-2.857c0.401-0.379,0.607-0.746,0.607-1.056c0-0.459-0.447-0.78-1.388-0.803V0.177
		c0.849,0.046,1.95,0.069,2.776,0.069c0.631,0,1.217-0.023,1.664-0.069v0.448c-1.125,0.207-1.664,0.54-2.869,1.687l-3.706,3.706
		L52.645,12.558z"/>
	<path fill="#FFFFFF" d="M66.391,0.647c-1.595,0.069-1.904,0.298-1.904,2.02v9.306c0,1.71,0.31,1.951,1.904,2.02v0.471
		c-0.723-0.046-1.904-0.069-2.983-0.069c-1.216,0-2.353,0.023-3.007,0.069v-0.471c1.596-0.068,1.905-0.31,1.905-2.02V2.667
		c0-1.721-0.31-1.951-1.905-2.02V0.177c0.654,0.046,1.791,0.069,3.007,0.069c1.079,0,2.261-0.023,2.983-0.069V0.647z"/>
</g>
</svg>
