<svg xmlns="http://www.w3.org/2000/svg" width="51.5" height="51.5" viewBox="0 0 51.5 51.5">
  <g id="Group_82" data-name="Group 82" transform="translate(-898 -950)">
    <path id="Exclusion_2" data-name="Exclusion 2" d="M-5261.25,237.749a24.842,24.842,0,0,1-9.731-1.965,24.916,24.916,0,0,1-7.946-5.358,24.914,24.914,0,0,1-5.358-7.946,24.843,24.843,0,0,1-1.965-9.731,24.843,24.843,0,0,1,1.965-9.731,24.913,24.913,0,0,1,5.358-7.947,24.915,24.915,0,0,1,7.946-5.358,24.842,24.842,0,0,1,9.731-1.965,24.842,24.842,0,0,1,9.731,1.965,24.916,24.916,0,0,1,7.946,5.358,24.93,24.93,0,0,1,5.358,7.947,24.854,24.854,0,0,1,1.964,9.731,24.854,24.854,0,0,1-1.964,9.731,24.929,24.929,0,0,1-5.358,7.946,24.917,24.917,0,0,1-7.946,5.358A24.842,24.842,0,0,1-5261.25,237.749Zm-4.015-34.123v18.247l12.881-9.124-12.881-9.124Z" transform="translate(6185 763)" fill="#fff" stroke="#fff" stroke-width="1.5"/>
  </g>
</svg>
