<svg xmlns="http://www.w3.org/2000/svg" width="50.147" height="50" viewBox="0 0 50.147 50">
  <g id="Ресурс_1" data-name="Ресурс 1" transform="translate(-0.027)">
    <g id="Слой_1" data-name="Слой 1" transform="translate(0.026)">
      <path id="Path_23" data-name="Path 23" d="M4.424,29.671A96.29,96.29,0,0,1,34.079,1.079L34.023,0C25.692,10.69,17.312,21.348,9.359,32.3,7.507,34.863,5.64,37.431,3.933,40.1a40.884,40.884,0,0,0-2.2,3.759,15.3,15.3,0,0,0-1.61,3.912A2.592,2.592,0,0,0,.287,49.61c.684.982,1.8-.137,2.342-.66,2.479-2.415,4.934-4.894,7.4-7.341L26.344,25.4l-.089-1.038-8.983,9.442c-.8.861-1.61,1.666-1.425,2.938.185,1.449,1.819,1.127,2.89,1,1.924-.241,3.8-.8,5.7-1.135a18.618,18.618,0,0,1,2.672-.314,5.8,5.8,0,0,1,1.24,0c.885.185.8.741.362,1.425a4.088,4.088,0,0,0-1.063,2.85c.153,1.352,1.336,1.489,2.5,1.3a42.542,42.542,0,0,0,12.7-4.484c.169-.089.169-1.038,0-1.079-3.711-.8-7.494-.612-11.269-.451-1.924.08-3.848.161-5.78.089-1.441-.056-5.4,0-3.832-2.463a14.3,14.3,0,0,1,3.485-3.26q2.085-1.61,4.315-3.091a95.736,95.736,0,0,1,9.394-5.353c3.582-1.8,7.245-3.453,10.907-5.1.241-.113,0-1.095,0-1.079-7.245,3.26-14.546,6.544-21.146,11.012a56.527,56.527,0,0,0-4.83,3.638c-1.151.966-2.415,2.02-2.745,3.574a2.5,2.5,0,0,0,.8,2.616,5.852,5.852,0,0,0,2.729.531c1.095.072,2.2.089,3.292.072,4.934-.056,9.885-.692,14.763.338V36.3a45.006,45.006,0,0,1-9.99,3.88c-.8.217-1.674.411-2.52.563a2.753,2.753,0,0,1-2.029-.1c-.8-.555.225-1.4.6-1.972a3.3,3.3,0,0,0,.5-1.32c.1-.636.08-1.554-.523-1.94a4.065,4.065,0,0,0-2.157-.177,21.211,21.211,0,0,0-2.664.37c-1.715.338-3.4.8-5.128,1.038a5.916,5.916,0,0,1-2.222.089c-.507-.153-.523-.193-.443-.555s.684-.877.966-1.175l9.024-9.6c.185-.193,0-1.087-.089-1.038L13,37.511,6.2,44.273,3.12,47.292a6.8,6.8,0,0,1-1.61,1.457,1.014,1.014,0,0,1-.8.145c-.676-.3-.177-1.151,0-1.546,2.214-5.49,6.037-10.32,9.5-15.037,3.6-4.942,7.317-9.772,11.036-14.6Q27.68,9.37,34.119,1.079A2.117,2.117,0,0,0,34.055,0,96.362,96.362,0,0,0,4.336,28.633C4.175,28.874,4.416,29.679,4.424,29.671Z" transform="translate(-0.026)"/>
    </g>
  </g>
</svg>
